<?xml version="1.0" encoding="UTF-8"?>
<svg id="Layer_2" data-name="Layer 2" xmlns="http://www.w3.org/2000/svg" xmlns:xlink="http://www.w3.org/1999/xlink" viewBox="0 0 1140.42 968.43">
  <defs>
    <style>
      .cls-1 {
        fill: #f89823;
      }

      .cls-2 {
        fill: #477abd;
      }

      .cls-3 {
        fill: url(#New_Gradient_Swatch_1);
      }
    </style>
    <linearGradient id="New_Gradient_Swatch_1" data-name="New Gradient Swatch 1" x1="295.42" y1="449.01" x2="901.75" y2="449.01" gradientUnits="userSpaceOnUse">
      <stop offset="0" stop-color="#477abd"/>
      <stop offset="1" stop-color="#f89823"/>
    </linearGradient>
  </defs>
  <g id="Layer_1-2" data-name="Layer 1">
    <g>
      <path class="cls-3" d="M901.75,436.41v40.82c-6.08-.97-13.43,19.7-17.73,29.5l-13.11,29.9c-3.46,7.88-9.5,15.01-17.47,18.57-14.38,6.41-30.05-.43-37.94-13.68-5.56-9.33-9.5-19.09-12.27-29.85l-19.21-74.61-1.9.69-10.47,64.47-10.45,57.6c-1.71,9.44-5.03,18.3-9.39,26.56-4.44,8.42-12.47,12.86-21.48,12.45-8.6-.4-16.1-5.46-20-14.04l-6.81-20.21-19.24-76.85c-4.87,16.83-6.99,32.31-10.5,48.52l-11.9,55.02c-2.06,9.53-5.59,18.34-10.79,26.31-7.25,11.12-21.97,13.47-31.87,4.33-11.76-10.86-17.57-41.34-20.22-59.78l-16.44-114.48-9.84-70.13-4.14-19.76-6.2,28.05-13.39,73.52c-5.56,30.47-15.35,86.53-48.46,86.16-48.13-.52-47.71-107.21-63.59-147.38l-20.73,109.24c-4.96,26.14-11.78,66.2-26.84,85.21-10.03,12.66-27.07,14.16-39.4,3.91-16.43-13.67-23.24-42.67-28.62-64.42l-18.58-75.15c-1.53-6.19-3.67-11.97-7.35-17.3v-41.81c9.24-.18,18.46,3.43,25.73,10.78,7.48,7.57,12.24,16.88,15.73,27.26,6.49,19.28,10.8,38.5,15.67,58.35,4.34,17.68,7.64,34.87,14.49,52.69,17.04-59.86,21.75-120.53,37.34-177.99,2.55-9.4,6.64-18.07,12.79-25.08,10.5-11.97,27.04-12.86,38.44-1.77,12.15,11.84,17.99,35.39,21.6,53.38l10.01,49.9c3.27,16.31,6.58,31.55,13.14,48.36,5.51-14.25,8.49-27.92,11.19-42.55l15.42-83.39,8.07-45.08c2.02-11.23,5.84-21.59,9.7-32.3,2.06-5.7,5.66-10.97,10.3-14.72,11.05-8.95,26.12-5.8,33.73,6.09,10,15.61,14.39,40.91,17.37,60.86l28.76,192.82,24.51-116.25c1.41-6.68,4.73-12.16,8.59-17.52,7.86-8.16,19.79-8.32,28.63-.7,5.49,4.72,8.56,11.95,10.47,19.42l23.32,91.12,14.14-81.01,8.85-46.23c3.32-17.3,15.83-35.28,32.84-32.15,6.31,1.17,12.62,5.51,15.96,12,5.25,10.19,9.2,20.62,12,32.03l20.41,83.42,7.88,25.13,17.15-37.22c3.61-7.84,9.11-14.7,15.42-20.49,8.19-7.51,17.45-10.87,26.68-10.55h0Z"/>
      <path class="cls-2" d="M136.93,830.48c4.67.2,13.37-2.74,13.41-7.78l.52-67.56c-13.89,2.44-24.96,9.42-33,19.8-6.4,9.17-9.62,19.8-7.8,30.9,2.19,13.35,12.16,23.99,26.87,24.64ZM1134.57,466.29l-.24,45.23c-.21,41.43-14.56,96.53-36.97,131.81-12.08,19.02-24.49,36.52-40.31,52.74-39.37,40.37-88.76,67.18-143.3,81.52-79.79,20.97-170.52,18.78-251.72,5.89l-54.48-8.65-83.41-15.46-123.23-21.49c-49.87-8.69-123.9-13.2-174.5-7.95l-1.16,2.2c12.15,9.09,23.23,18.06,32.04,30.31,24.54,34.12,29.93,78.13,15.72,117.73-12.04,33.55-36.91,59.9-68.97,75.16-14.66,6.97-29.54,12.74-45.89,12.79l-26.48.07c-31.8-3.2-60.51-16.75-83.87-38.44-27.52-25.55-46.76-62.03-46.75-100.64l.05-206.31c.01-40.89,19.71-79.29,47.76-107.71,30.31-30.71,70.94-46.76,113.57-49.48,15.93-1.02,30.82.16,46.65.13,43.58-.09,41.64-39.16,62.83-58.36,6.9-6.26,15.21-9.45,23.51-9.59v41.81c-7.34,13.99-13.03,26.39-22.48,37.55-11.16,13.18-25.41,22.03-42.29,25.87-25.44,5.78-51.04-1.83-85.43,4.59-29.09,5.44-55.3,19.51-74.38,42.38-19.27,23.1-31.38,51.85-31.42,82.55l-.25,167.73,1.08,29.37c3.15,28.23,15.44,53.55,36.51,72.37,29.81,26.61,72.25,34.17,109.03,17.79,40.99-18.26,63.91-64.76,50.96-108.96-7.34-25.06-25.43-44.84-50.96-53.65l-.12,70.25c-.02,14.21-7.89,26.41-19.19,34.21-15.06,9.97-33.06,11.79-50.04,5.86-30.36-10.59-49.3-38.86-47.29-71.15,1.56-24.93,13.95-46.34,33.38-61.78,53.51-42.53,139.56-50.17,206.69-46.26,53.37,3.1,105.42,9.83,157.86,19.74l78.36,14.82,124.14,21.66c33.05,5.76,65.6,7.92,99.1,8.82,61.56,1.66,127.5-5.83,183.45-31.3,48.64-22.14,88.4-57.77,114.62-104.31,18.88-33.5,26.58-72.74,28.46-111.43,14.44-10.75,26.73-23.15,37.27-37.79l2.09-2.24Z"/>
      <path class="cls-1" d="M1139.94,277.39l.24,8.43-.13,56.23c-.15,66.72-42.55,126.84-104.49,151.45-21.8,8.67-44.44,12.1-67.71,11.78-25.44-.96-47.95-10.34-66.1-28.05v-40.82h0c9.61.33,19.19,4.68,27.43,12.52,8.51,8.1,17.86,14.46,30.12,15.75,26.34,2.78,53.09-2.07,76.26-15.14,24.73-13.94,44.36-34.44,54.87-60.94,6.16-15.53,10.11-31.88,10.13-48.91l.26-193.15c.03-26.39-5.79-51.53-22.57-71.76-15.66-18.89-36.4-31.17-60.82-33.99-27.8-3.21-54.75,5.55-74.58,24.49-32.75,31.26-38.88,84.34-9.91,119.88,17.75,21.77,47.04,31.63,73.94,23.66,16.68-4.94,28.19-19.3,29.36-36.21.97-14.04-6.3-26.51-18.83-31.86-6.36-2.72-13.43-2.29-19.11,1.43-8.57,5.6-18.22,3.89-25.18-3.3-8.11-8.39-7.89-20.9,1.76-28.25,16.3-12.43,37.08-14.55,56.48-7.02,18.76,7.28,33.36,22.58,40.17,41.74,11.91,33.55-.9,69.31-29.68,89.55-34.27,24.09-74.81,32.89-116.47,35.3-59.02,3.42-121.07-4.71-179.32-15.84l-135.3-29.57c-42.54-9.29-83.96-18.88-126.9-25.99-77.97-12.92-157.04-18.64-234.55-2.12-18.89,4.03-36.42,8.74-54.48,15.51-35.5,13.3-67.81,33.24-93.97,60.68-43.87,46.03-60.7,103.68-61.34,166.52l.05,34.79c-14.44,12.64-26.7,25-39.32,40.51l.51-92.13c.33-60.31,25.74-127.06,66.84-171.79,19.87-21.62,41.99-39.14,67.47-53.57,72.98-41.33,164.72-54.66,248.04-49.91,51.74,2.96,102.29,9.77,152.76,20.95l107.27,23.77c40.5,8.97,79.86,17.9,120.73,25.04,29.85,5.21,58.58,9.24,88.79,12.11,23.42,2.22,46.01,2.89,69.56,1.36-15.31-13.8-27.31-26.94-35.4-44.38-23.71-51.11-11.42-113.32,30.17-151.18,54.97-50.05,141.34-45.75,189.72,11.51,18.74,22.18,32.12,51.23,32.28,80.87l.74,141.78.21,8.27Z"/>
    </g>
  </g>
</svg>